<svg width="1000" height="233" viewBox="0 0 1000 233" fill="none" xmlns="http://www.w3.org/2000/svg">
<path d="M282.2 195.7C275.4 189.7 273.6 182 273.6 175.3C273.6 170.6 275.1 162.4 281.7 156.3C286.7 151.7 293.3 149 303.6 149C307.9 149 310.5 149.3 313.6 149.7C316.2 150 318.5 150.7 320.5 150.9C321.3 151 321.5 151.3 321.5 151.7C321.5 152.3 321.3 153.1 321.2 155.5C321.1 157.8 321.1 161.6 321 163C320.9 164 320.8 164.6 320.2 164.6C319.6 164.6 319.5 164 319.5 163.1C319.4 161 318.5 158.5 316.8 156.7C314.5 154.3 309.1 152.4 302.7 152.4C296.7 152.4 292.7 153.9 289.7 156.7C284.6 161.3 283.3 167.9 283.3 174.6C283.3 191.1 295.8 199.3 305.1 199.3C311.3 199.3 315 198.6 317.8 195.4C319 194.1 319.9 192.1 320.2 190.8C320.4 189.7 320.5 189.4 321.1 189.4C321.6 189.4 321.7 189.9 321.7 190.4C321.7 191.2 320.9 197.3 320.2 199.6C319.9 200.8 319.6 201.1 318.4 201.6C315.6 202.7 310.4 203.2 305.9 203.2C296.5 203.3 288.5 201.2 282.2 195.7Z" fill="black"/>
<path d="M333.199 176.1C333.199 164.3 340.999 148.9 361.799 148.9C379.099 148.9 389.799 158.9 389.799 174.8C389.799 190.7 378.699 203.2 361.099 203.2C341.299 203.3 333.199 188.4 333.199 176.1ZM380.099 177.4C380.099 161.9 371.199 152.2 359.799 152.2C351.799 152.2 342.799 156.6 342.799 173.9C342.799 188.3 350.799 199.7 364.099 199.7C368.899 199.8 380.099 197.5 380.099 177.4Z" fill="black"/>
<path d="M411.399 150.2C411.599 149 411.999 148.4 412.599 148.4C413.199 148.4 413.599 148.7 414.499 150.5L433.399 189.6L452.199 150C452.799 148.9 453.099 148.3 453.699 148.3C454.299 148.3 454.699 149 454.899 150.4L461.199 193.2C461.799 197.6 462.499 199.6 464.599 200.2C466.599 200.8 467.999 200.9 468.899 200.9C469.499 200.9 469.999 201 469.999 201.4C469.999 202 469.199 202.2 468.199 202.2C466.499 202.2 456.899 202 454.099 201.8C452.499 201.7 452.099 201.5 452.099 201C452.099 200.7 452.399 200.4 452.899 200.2C453.299 200.1 453.499 199.2 453.199 197.2L448.999 166.7H448.699L433.599 198.2C431.999 201.5 431.699 202.1 430.999 202.1C430.399 202.1 429.699 200.7 428.599 198.6C426.899 195.4 421.499 184.8 420.599 182.9C419.999 181.4 415.799 172.7 413.399 167.5H413.099L409.499 195.1C409.399 196.3 409.299 197.2 409.299 198.4C409.299 199.7 410.199 200.3 411.399 200.6C412.599 200.9 413.599 200.9 414.299 200.9C414.899 200.9 415.299 201 415.299 201.4C415.299 202 414.699 202.2 413.599 202.2C410.699 202.2 407.599 202 406.299 202C404.999 202 401.699 202.2 399.399 202.2C398.699 202.2 398.199 202.1 398.199 201.4C398.199 201.1 398.599 200.9 399.299 200.9C399.899 200.9 400.299 200.9 401.399 200.7C403.299 200.3 403.899 197.6 404.199 195.2L411.399 150.2Z" fill="black"/>
<path d="M485.3 170C485.3 159.5 485.3 157.5 485.2 155.3C485.1 152.9 484.5 151.8 482.2 151.3C481.6 151.2 480.5 151.1 479.5 151.1C478.7 151.1 478.3 151 478.3 150.5C478.3 150 478.8 149.9 479.8 149.9C483.5 149.9 487.8 150.1 489.8 150.1C492.6 150.1 496.7 149.9 499.8 149.9C508.5 149.9 511.6 152.8 512.7 153.8C514.2 155.3 516.2 158.4 516.2 162C516.2 171.8 509 178.8 499.2 178.8C498.9 178.8 498.1 178.8 497.7 178.7C497.4 178.6 496.9 178.6 496.9 178.1C496.9 177.5 497.4 177.3 498.8 177.3C502.7 177.3 508.1 172.9 508.1 165.9C508.1 163.6 507.9 159 504 155.5C501.5 153.2 498.7 152.8 497.1 152.8C496.1 152.8 495 152.9 494.4 153.1C494.1 153.2 493.8 153.7 493.8 154.4V182.1C493.8 188.5 493.8 194 494.1 196.9C494.3 198.8 494.7 200.4 496.8 200.6C497.8 200.7 499.3 200.9 500.3 200.9C501.1 200.9 501.4 201.1 501.4 201.5C501.4 202 500.8 202.2 500.1 202.2C495.5 202.2 491.2 202 489.4 202C487.8 202 483.4 202.2 480.7 202.2C479.8 202.2 479.3 202 479.3 201.5C479.3 201.2 479.6 200.9 480.4 200.9C481.4 200.9 482.3 200.8 482.9 200.6C484.3 200.3 484.6 198.8 484.9 196.8C485.2 193.9 485.2 188.4 485.2 182V170H485.3Z" fill="black"/>
<path d="M534.1 184.2C533.8 184.2 533.6 184.3 533.5 184.8L529.8 194.7C529.1 196.4 528.8 198.1 528.8 198.9C528.8 200.1 529.4 201 531.6 201H532.6C533.4 201 533.6 201.1 533.6 201.6C533.6 202.2 533.2 202.3 532.4 202.3C530.2 202.3 527.2 202.1 525.1 202.1C524.3 202.1 520.5 202.3 516.9 202.3C516 202.3 515.6 202.2 515.6 201.6C515.6 201.2 515.9 201 516.4 201C517 201 518 200.9 518.5 200.9C521.7 200.5 523 198.1 524.4 194.7L541.8 151.2C542.6 149.2 543 148.4 543.7 148.4C544.3 148.4 544.7 149 545.4 150.6C547.1 154.4 558.2 182.7 562.6 193.2C565.2 199.4 567.2 200.4 568.7 200.8C569.7 201 570.8 201.1 571.6 201.1C572.2 201.1 572.5 201.2 572.5 201.7C572.5 202.3 571.9 202.4 569.3 202.4C566.8 202.4 561.7 202.4 556.2 202.3C555 202.2 554.1 202.2 554.1 201.7C554.1 201.3 554.4 201.1 555.1 201.1C555.6 201 556.1 200.3 555.7 199.5L550.2 184.8C550.1 184.5 549.9 184.3 549.5 184.3H534.1V184.2ZM548.3 180.8C548.6 180.8 548.7 180.6 548.6 180.4L542.4 163.3C542.3 163 542.3 162.7 542.1 162.7C541.9 162.7 541.8 163 541.7 163.3L535.3 180.3C535.2 180.6 535.3 180.8 535.6 180.8H548.3Z" fill="black"/>
<path d="M587.899 192.9C587.999 198.3 588.899 200.1 590.299 200.6C591.499 201 592.799 201.1 593.899 201.1C594.699 201.1 595.099 201.2 595.099 201.7C595.099 202.3 594.499 202.4 593.499 202.4C588.999 202.4 586.199 202.2 584.899 202.2C584.299 202.2 580.999 202.4 577.399 202.4C576.499 202.4 575.899 202.3 575.899 201.7C575.899 201.3 576.299 201.1 576.999 201.1C577.899 201.1 579.099 201 580.099 200.8C581.899 200.2 582.199 198.2 582.199 192.2L582.799 151.2C582.799 149.8 582.999 148.8 583.699 148.8C584.499 148.8 585.099 149.7 586.299 150.9C587.099 151.8 597.699 163.1 607.799 173.1C612.499 177.8 621.899 187.8 622.999 188.9H623.299L622.599 157.8C622.499 153.6 621.899 152.3 620.199 151.6C619.199 151.2 617.499 151.2 616.499 151.2C615.699 151.2 615.399 151 615.399 150.6C615.399 150 616.199 150 617.199 150C620.799 150 624.099 150.2 625.599 150.2C626.399 150.2 628.999 150 632.399 150C633.299 150 633.999 150.1 633.999 150.6C633.999 151 633.599 151.2 632.799 151.2C632.099 151.2 631.599 151.2 630.699 151.4C628.799 152 628.199 153.4 628.099 157.3L627.299 201C627.299 202.5 626.999 203.1 626.399 203.1C625.599 203.1 624.799 202.3 623.999 201.6C619.599 197.4 610.799 188.4 603.599 181.2C595.999 173.7 588.399 165.1 587.099 163.7H586.899L587.899 192.9Z" fill="black"/>
<path d="M661.6 184.4C661.6 180.7 660.9 179.1 660 177.1C659.5 176 650.2 160.7 647.8 157.1C646.1 154.5 644.3 152.8 643 152C642.1 151.5 640.9 151.1 640.1 151.1C639.5 151.1 639.1 151 639.1 150.5C639.1 150.1 639.6 149.9 640.4 149.9C641.6 149.9 646.8 150.1 649.1 150.1C650.6 150.1 653.4 149.9 656.5 149.9C657.2 149.9 657.5 150.1 657.5 150.5C657.5 150.9 657 151 656 151.3C655.4 151.4 655 152 655 152.5C655 153 655.3 153.9 655.8 154.9C656.8 157 666.5 173.7 667.6 175.6C668.3 173.9 677 158.7 678 156.5C678.7 155 679 153.8 679 152.9C679 152.2 678.7 151.4 677.5 151.2C676.9 151.1 676.3 150.9 676.3 150.5C676.3 150 676.6 149.9 677.5 149.9C679.8 149.9 682 150.1 684 150.1C685.5 150.1 690.1 149.9 691.4 149.9C692.2 149.9 692.6 150 692.6 150.5C692.6 151 692 151.2 691.3 151.2C690.6 151.2 689.3 151.5 688.3 152C686.8 152.7 686.1 153.5 684.6 155.4C682.3 158.2 672.6 174.5 671.4 177.4C670.4 179.9 670.4 182 670.4 184.3V190C670.4 191.1 670.4 194 670.6 196.9C670.7 198.9 671.4 200.4 673.4 200.7C674.4 200.8 675.9 201 676.9 201C677.7 201 678 201.2 678 201.6C678 202.1 677.4 202.3 676.5 202.3C672.1 202.3 667.8 202.1 665.9 202.1C664.2 202.1 659.8 202.3 657.2 202.3C656.2 202.3 655.7 202.2 655.7 201.6C655.7 201.3 656 201 656.8 201C657.8 201 658.6 200.9 659.2 200.7C660.6 200.4 661.2 198.9 661.3 196.9C661.5 194 661.5 191.1 661.5 190V184.4H661.6Z" fill="black"/>
<path d="M287.199 103.9C276.499 94.5002 273.699 82.3002 273.699 71.7002C273.699 64.3002 275.999 51.4002 286.499 41.8002C294.399 34.6002 304.699 30.2002 320.999 30.2002C327.799 30.2002 331.799 30.6002 336.799 31.3002C340.899 31.8002 344.399 32.8002 347.699 33.2002C348.899 33.3002 349.299 33.9002 349.299 34.5002C349.299 35.4002 348.999 36.7002 348.799 40.5002C348.599 44.1002 348.699 50.1002 348.499 52.3002C348.399 53.9002 348.199 54.8002 347.199 54.8002C346.299 54.8002 346.099 53.9002 346.099 52.4002C345.999 49.0002 344.599 45.2002 341.799 42.4002C338.199 38.6002 329.699 35.6002 319.699 35.6002C310.199 35.6002 303.999 38.0002 299.199 42.4002C291.199 49.7002 289.199 60.1002 289.199 70.7002C289.199 96.7002 308.899 109.5 323.599 109.5C333.299 109.5 339.199 108.4 343.599 103.4C345.499 101.3 346.899 98.2002 347.299 96.2002C347.599 94.5002 347.799 94.0002 348.699 94.0002C349.499 94.0002 349.699 94.8002 349.699 95.6002C349.699 96.9002 348.399 106.4 347.299 110.1C346.799 112 346.299 112.5 344.499 113.3C340.099 115 331.799 115.8 324.899 115.8C309.599 115.8 297.099 112.5 287.199 103.9Z" fill="black"/>
<path d="M387 85.8C386.5 85.8 386.2 86 386 86.7L380.1 102.3C379 105 378.5 107.6 378.5 109C378.5 111 379.5 112.4 382.9 112.4H384.5C385.8 112.4 386.1 112.6 386.1 113.3C386.1 114.2 385.4 114.4 384.2 114.4C380.7 114.4 376 114.1 372.6 114.1C371.4 114.1 365.4 114.4 359.7 114.4C358.3 114.4 357.6 114.2 357.6 113.3C357.6 112.6 358 112.4 358.9 112.4C359.9 112.4 361.4 112.3 362.3 112.2C367.3 111.5 369.4 107.8 371.6 102.4L399 33.9C400.3 30.7 401 29.5 402.1 29.5C403.1 29.5 403.7 30.5 404.8 33C407.4 39 424.9 83.5 431.9 100.1C436 109.9 439.2 111.4 441.5 112C443.1 112.3 444.8 112.4 446.1 112.4C447 112.4 447.5 112.5 447.5 113.3C447.5 114.2 446.5 114.4 442.5 114.4C438.6 114.4 430.6 114.4 421.9 114.2C419.9 114.1 418.6 114.1 418.6 113.3C418.6 112.6 419 112.4 420.1 112.3C420.9 112.1 421.6 111.1 421.1 109.8L412.4 86.7C412.2 86.2 411.9 85.9 411.3 85.9H387V85.8ZM409.3 80.3C409.8 80.3 410 80 409.8 79.6L400 52.7C399.9 52.3 399.8 51.7 399.5 51.7C399.2 51.7 399 52.2 398.8 52.7L388.8 79.5C388.7 79.9 388.8 80.3 389.2 80.3H409.3Z" fill="black"/>
<path d="M472.999 37.8998L456.699 38.2998C450.399 38.4998 447.799 39.0998 446.099 41.4998C444.999 43.0998 444.499 44.3998 444.199 45.2998C443.999 46.1998 443.699 46.5998 442.999 46.5998C442.199 46.5998 441.999 46.0998 441.999 44.8998C441.999 43.1998 444.099 33.1998 444.299 32.3998C444.599 30.9998 444.999 30.2998 445.599 30.2998C446.499 30.2998 447.599 31.3998 450.299 31.5998C453.499 31.8998 457.599 32.0998 461.199 32.0998H504.399C507.899 32.0998 510.299 31.7998 511.899 31.5998C513.499 31.2998 514.399 31.0998 514.799 31.0998C515.599 31.0998 515.699 31.7998 515.699 33.3998C515.699 35.6998 515.399 43.1998 515.399 46.0998C515.299 47.1998 515.099 47.7998 514.399 47.7998C513.499 47.7998 513.299 47.2998 513.199 45.5998L513.099 44.3998C512.899 41.5998 509.899 38.4998 500.199 38.2998L486.499 37.9998V82.6998C486.499 92.6998 486.499 101.4 486.999 106C487.299 109.1 487.999 111.5 491.299 111.9C492.799 112.1 495.199 112.3 496.899 112.3C498.099 112.3 498.599 112.6 498.599 113.2C498.599 114 497.699 114.3 496.499 114.3C489.299 114.3 482.399 114 479.399 114C476.899 114 469.999 114.3 465.699 114.3C464.299 114.3 463.499 114 463.499 113.2C463.499 112.7 463.899 112.3 465.199 112.3C466.799 112.3 468.099 112.1 469.099 111.9C471.299 111.5 471.899 109.1 472.299 105.9C472.799 101.3 472.799 92.6998 472.799 82.6998V37.8998H472.999Z" fill="black"/>
<path d="M542.499 63.3999C542.499 46.7999 542.499 43.7999 542.299 40.2999C542.099 36.5999 541.199 34.7999 537.599 34.0999C536.699 33.8999 534.899 33.7999 533.299 33.7999C532.099 33.7999 531.399 33.5999 531.399 32.7999C531.399 31.9999 532.199 31.7999 533.799 31.7999C536.699 31.7999 539.899 31.8999 542.599 31.8999C545.399 31.9999 547.899 32.0999 549.499 32.0999C552.999 32.0999 574.699 32.0999 576.799 31.9999C578.899 31.7999 580.599 31.5999 581.499 31.2999C581.999 31.1999 582.699 30.8999 583.199 30.8999C583.699 30.8999 583.899 31.2999 583.899 31.8999C583.899 32.6999 583.399 33.9999 582.999 38.9999C582.899 40.0999 582.699 44.8999 582.499 46.1999C582.399 46.6999 582.199 47.3999 581.399 47.3999C580.599 47.3999 580.399 46.8999 580.399 45.8999C580.399 45.0999 580.299 43.2999 579.699 41.9999C578.899 39.9999 577.799 38.6999 572.399 38.0999C570.499 37.8999 559.099 37.6999 556.899 37.6999C556.399 37.6999 556.099 37.9999 556.099 38.7999V66.3999C556.099 67.1999 556.199 67.5999 556.899 67.5999C559.299 67.5999 571.799 67.5999 574.399 67.3999C576.999 67.1999 578.699 66.8999 579.599 65.7999C580.399 64.8999 580.799 64.3999 581.299 64.3999C581.699 64.3999 582.099 64.5999 582.099 65.2999C582.099 65.9999 581.699 67.6999 581.199 73.2999C581.099 75.4999 580.799 79.7999 580.799 80.5999C580.799 81.4999 580.799 82.6999 579.799 82.6999C578.999 82.6999 578.799 82.2999 578.799 81.6999C578.699 80.5999 578.699 79.1999 578.399 77.7999C577.899 75.5999 576.299 73.9999 572.299 73.4999C570.199 73.2999 559.399 73.1999 556.799 73.1999C556.299 73.1999 556.099 73.5999 556.099 74.2999V82.8999C556.099 86.5999 555.999 96.5999 556.099 99.7999C556.299 107.3 558.099 109 569.199 109C571.999 109 576.599 109 579.499 107.7C582.399 106.4 583.599 104.1 584.399 99.5999C584.599 98.3999 584.799 97.9999 585.599 97.9999C586.499 97.9999 586.499 98.8999 586.499 99.9999C586.499 102.5 585.599 109.9 585.099 112.1C584.299 114.9 583.399 114.9 579.199 114.9C570.999 114.9 564.999 114.7 560.299 114.6C555.599 114.4 552.199 114.3 548.999 114.3C547.799 114.3 545.399 114.3 542.799 114.4C540.299 114.4 537.499 114.6 535.299 114.6C533.899 114.6 533.099 114.3 533.099 113.5C533.099 113 533.499 112.6 534.799 112.6C536.399 112.6 537.699 112.4 538.699 112.2C540.899 111.8 541.399 109.4 541.899 106.2C542.399 101.6 542.399 92.9999 542.399 82.9999V63.3999H542.499Z" fill="black"/>
<path d="M684.2 107C684.2 109.9 684.1 110.2 682.8 110.9C675.7 114.6 665 115.8 656.5 115.8C629.8 115.8 606.1 103.1 606.1 73.0002C606.1 55.5002 615.2 43.3002 625.1 37.3002C635.6 31.0002 645.3 30.2002 654.4 30.2002C661.9 30.2002 671.5 31.5002 673.7 31.9002C676 32.3002 679.8 33.0002 682.3 33.1002C683.6 33.2002 683.8 33.6002 683.8 34.4002C683.8 35.6002 683 38.7002 683 52.3002C683 54.0002 682.7 54.6002 681.8 54.6002C681 54.6002 680.8 54.1002 680.7 53.2002C680.4 50.7002 679.8 47.2002 677 44.1002C673.7 40.6002 665 35.6002 652.7 35.6002C646.7 35.6002 638.7 36.0002 631.1 42.4002C625 47.5002 621.1 55.7002 621.1 69.1002C621.1 92.6002 636 110.1 659.1 110.1C661.9 110.1 665.8 110.1 668.4 108.9C670 108.1 670.5 106.7 670.5 104.9V94.7002C670.5 89.2002 670.5 85.1002 670.4 81.8002C670.3 78.1002 669.3 76.3002 665.7 75.6002C664.8 75.4002 663 75.3002 661.4 75.3002C660.4 75.3002 659.8 75.1002 659.8 74.4002C659.8 73.5002 660.6 73.3002 662.1 73.3002C667.8 73.3002 674.6 73.6002 677.9 73.6002C681.3 73.6002 687.1 73.3002 690.7 73.3002C692.1 73.3002 692.9 73.5002 692.9 74.4002C692.9 75.1002 692.2 75.3002 691.5 75.3002C690.6 75.3002 689.9 75.4002 688.6 75.6002C685.7 76.1002 684.6 78.0002 684.5 81.8002C684.4 85.1002 684.4 89.4002 684.4 94.9002V107H684.2Z" fill="black"/>
<path d="M709.299 73.0002C709.299 54.3002 721.599 30.2002 754.399 30.2002C781.599 30.2002 798.499 46.0002 798.499 71.0002C798.499 96.0002 780.999 115.7 753.299 115.7C721.899 115.8 709.299 92.3002 709.299 73.0002ZM783.099 75.1002C783.099 50.7002 768.999 35.5002 751.099 35.5002C738.599 35.5002 724.299 42.5002 724.299 69.6002C724.299 92.3002 736.799 110.3 757.799 110.3C765.499 110.3 783.099 106.6 783.099 75.1002Z" fill="black"/>
<path d="M827.799 63.3998C827.799 46.7998 827.799 43.7998 827.599 40.2998C827.399 36.5998 826.499 34.7998 822.899 34.0998C821.999 33.8998 820.199 33.7998 818.599 33.7998C817.399 33.7998 816.699 33.5998 816.699 32.7998C816.699 31.9998 817.499 31.7998 819.099 31.7998C824.899 31.7998 831.799 32.0998 833.999 32.0998C837.699 32.0998 845.999 31.7998 849.399 31.7998C856.299 31.7998 863.599 32.4998 869.499 36.4998C872.599 38.5998 876.899 44.0998 876.899 51.3998C876.899 59.4998 873.499 66.8998 862.499 75.7998C872.199 87.9998 879.699 97.6998 886.199 104.5C892.299 110.8 896.799 111.6 898.399 111.9C899.599 112.1 900.599 112.2 901.499 112.2C902.399 112.2 902.799 112.5 902.799 113.1C902.799 114 901.999 114.2 900.699 114.2H890.299C884.199 114.2 881.499 113.7 878.599 112.1C873.899 109.6 869.799 104.5 863.699 96.0998C859.299 90.0998 854.299 82.6998 852.899 80.9998C852.399 80.2998 851.699 80.1998 850.899 80.1998L841.399 79.9998C840.899 79.9998 840.499 80.1998 840.499 80.8998V82.3998C840.499 92.4998 840.499 101.2 840.999 105.7C841.299 108.9 841.999 111.3 845.299 111.7C846.899 111.9 849.299 112.1 850.599 112.1C851.499 112.1 851.899 112.4 851.899 113C851.899 113.8 851.099 114.1 849.699 114.1C843.399 114.1 835.299 113.8 833.699 113.8C831.599 113.8 824.799 114.1 820.399 114.1C818.999 114.1 818.199 113.8 818.199 113C818.199 112.5 818.599 112.1 819.899 112.1C821.499 112.1 822.799 111.9 823.799 111.7C825.999 111.3 826.499 108.9 826.999 105.7C827.499 101.1 827.499 92.4998 827.499 82.4998V63.3998H827.799ZM840.599 72.0998C840.599 73.2998 840.799 73.6998 841.599 74.0998C843.899 74.8998 847.199 75.1998 849.899 75.1998C854.299 75.1998 855.699 74.7998 857.599 73.2998C860.899 70.8998 863.999 65.8998 863.999 56.8998C863.999 41.3998 853.699 36.8998 847.299 36.8998C844.599 36.8998 842.599 36.9998 841.499 37.2998C840.699 37.4998 840.499 37.9998 840.499 38.7998V72.0998H840.599Z" fill="black"/>
<path d="M926.699 86.0002C926.699 80.1002 925.599 77.7002 924.199 74.5002C923.399 72.8002 908.799 48.8002 904.999 43.1002C902.299 39.1002 899.499 36.3002 897.499 35.1002C896.099 34.3002 894.199 33.7002 892.899 33.7002C891.999 33.7002 891.299 33.5002 891.299 32.7002C891.299 32.0002 892.099 31.7002 893.399 31.7002C895.399 31.7002 903.499 32.0002 907.099 32.0002C909.399 32.0002 913.899 31.7002 918.799 31.7002C919.899 31.7002 920.399 32.0002 920.399 32.7002C920.399 33.4002 919.599 33.5002 917.999 33.9002C916.999 34.1002 916.499 35.0002 916.499 35.9002C916.499 36.8002 916.999 38.1002 917.799 39.6002C919.299 42.9002 934.599 69.2002 936.299 72.2002C937.399 69.6002 951.099 45.6002 952.699 42.2002C953.799 39.8002 954.199 37.9002 954.199 36.5002C954.199 35.4002 953.799 34.2002 951.899 33.8002C950.899 33.6002 949.899 33.4002 949.899 32.7002C949.899 31.9002 950.399 31.7002 951.799 31.7002C955.399 31.7002 958.899 32.0002 962.099 32.0002C964.499 32.0002 971.699 31.7002 973.799 31.7002C974.999 31.7002 975.799 31.9002 975.799 32.6002C975.799 33.4002 974.899 33.7002 973.699 33.7002C972.599 33.7002 970.499 34.1002 968.899 35.0002C966.599 36.1002 965.399 37.4002 962.999 40.3002C959.399 44.7002 944.099 70.3002 942.199 75.0002C940.599 78.9002 940.599 82.3002 940.599 85.9002V95.0002C940.599 96.7002 940.599 101.3 940.899 105.9C941.099 109.1 942.099 111.5 945.399 111.9C946.899 112.1 949.299 112.3 950.899 112.3C952.099 112.3 952.599 112.6 952.599 113.2C952.599 114 951.699 114.3 950.299 114.3C943.399 114.3 936.599 114 933.599 114C930.899 114 923.999 114.3 919.999 114.3C918.499 114.3 917.599 114.1 917.599 113.2C917.599 112.7 918.099 112.3 919.299 112.3C920.799 112.3 922.099 112.1 923.099 111.9C925.299 111.5 926.299 109.1 926.499 105.9C926.799 101.3 926.799 96.7002 926.799 95.0002V86.0002H926.699Z" fill="black"/>
<path d="M25.2002 22.2998V116.4V143.3V210.4H213.3V143.3V116.4V22.2998H25.2002ZM31.1002 28.1998H86.4002C60.9002 37.6998 40.6002 57.9998 31.1002 83.4998V28.1998ZM97.4002 30.8998V204.4H65.7002V46.2998C75.0002 39.2998 85.7002 33.8998 97.4002 30.8998ZM31.1002 143.2V116.3C31.1002 90.5998 42.2002 67.3998 59.8002 51.2998V204.4H31.1002V143.2ZM190.7 204.5C197.9 201.1 203.8 195.4 207.3 188.3V204.5H190.7ZM175.9 201.8C159.8 201.8 146.7 188.7 146.7 172.6C146.7 156.5 159.8 143.4 175.9 143.4C192 143.4 205.1 156.5 205.1 172.6C205.1 188.7 192 201.8 175.9 201.8ZM207.4 157.1C201.7 145.5 189.7 137.6 175.9 137.6C156.5 137.6 140.8 153.3 140.8 172.7C140.8 186.8 149.1 198.9 161.1 204.5H103.3V29.5998C108.5 28.6998 113.8 28.1998 119.2 28.1998C167.8 28.1998 207.3 67.6998 207.3 116.3V143.2V157.1H207.4ZM152.1 28.1998H207.4V83.4998C197.8 57.9998 177.6 37.6998 152.1 28.1998Z" fill="black"/>
<path d="M214.2 211.3H24.2998V21.3999H214.2V211.3ZM26.0998 209.5H212.4V23.1999H26.0998V209.5ZM208.3 205.4H186.8L190.4 203.7C197.4 200.4 203.2 194.8 206.6 187.9L208.3 184.5V205.4ZM194.3 203.6H206.5V191.7C203.4 196.5 199.2 200.6 194.3 203.6ZM165.1 205.4H102.4V28.8999L103.1 28.7999C108.4 27.7999 113.8 27.2999 119.2 27.2999C168.3 27.2999 208.2 67.1999 208.2 116.3V160.8L206.5 157.4C200.7 145.7 188.9 138.4 175.8 138.4C156.9 138.4 141.6 153.7 141.6 172.6C141.6 185.8 149.4 198 161.4 203.6L165.1 205.4ZM104.2 203.6H157.5C146.7 197.1 139.9 185.4 139.9 172.7C139.9 152.9 156 136.7 175.9 136.7C188.5 136.7 199.9 143.1 206.5 153.7V116.4C206.5 68.2999 167.4 29.1999 119.3 29.1999C114.3 29.1999 109.2 29.5999 104.3 30.4999V203.6H104.2ZM98.2998 205.4H64.7998V45.9999L65.0998 45.6999C74.6998 38.2999 85.4998 33.0999 97.0998 30.0999L98.1998 29.7999V205.4H98.2998ZM66.5998 203.6H96.4998V32.0999C85.6998 34.9999 75.5998 39.9999 66.5998 46.7999V203.6ZM60.6998 205.4H30.1998V116.4C30.1998 91.4999 40.7998 67.5999 59.1998 50.7999L60.6998 49.3999V205.4ZM31.9998 203.6H58.8998V53.3999C41.7998 69.7999 31.9998 92.5999 31.9998 116.3V203.6ZM175.9 202.7C159.3 202.7 145.8 189.2 145.8 172.6C145.8 156 159.3 142.5 175.9 142.5C192.5 142.5 206 156 206 172.6C206 189.2 192.5 202.7 175.9 202.7ZM175.9 144.4C160.3 144.4 147.6 157.1 147.6 172.7C147.6 188.3 160.3 201 175.9 201C191.5 201 204.2 188.3 204.2 172.7C204.2 157 191.5 144.4 175.9 144.4ZM208.3 88.3999L206.6 83.7999C197.1 58.4999 177.2 38.4999 151.8 28.9999L147.2 27.2999H208.3V88.3999ZM156.7 29.0999C179.1 38.6999 196.9 56.4999 206.5 78.8999V29.0999H156.7ZM30.1998 88.3999V27.2999H91.2998L86.6998 28.9999C61.3998 38.4999 41.3998 58.3999 31.8998 83.7999L30.1998 88.3999ZM31.9998 29.0999V78.8999C41.5998 56.4999 59.3998 38.6999 81.7998 29.0999H31.9998Z" fill="black"/>
</svg>
